<?xml version="1.0" standalone="no"?>
<!DOCTYPE svg PUBLIC "-//W3C//DTD SVG 20010904//EN"
 "http://www.w3.org/TR/2001/REC-SVG-20010904/DTD/svg10.dtd">
<svg version="1.0" xmlns="http://www.w3.org/2000/svg"
 width="1024.000000pt" height="1024.000000pt" viewBox="0 0 1024.000000 1024.000000"
 preserveAspectRatio="xMidYMid meet">
<metadata>
Created by potrace 1.14, written by Peter Selinger 2001-2017
</metadata>
<g transform="translate(0.000000,1024.000000) scale(0.100000,-0.100000)"
fill="#000000" stroke="none">
<path d="M1388 10225 c-121 -17 -233 -46 -358 -92 -317 -118 -606 -355 -788
-648 -101 -163 -174 -351 -214 -548 l-23 -112 0 -3705 0 -3705 23 -112 c88
-434 326 -792 690 -1036 171 -115 401 -206 612 -244 101 -17 251 -18 3790 -18
3539 0 3689 1 3790 18 369 65 716 264 950 545 181 215 296 456 352 735 l23
112 0 3705 0 3705 -23 112 c-88 434 -326 792 -690 1036 -165 111 -390 202
-602 243 -91 18 -235 19 -3765 21 -3010 1 -3688 -1 -3767 -12z m3125 -2613 c9
-9 25 -60 37 -112 65 -292 102 -332 365 -390 55 -12 112 -26 127 -32 56 -21
43 -81 -20 -96 -20 -6 -85 -21 -144 -36 -227 -54 -263 -95 -323 -361 -15 -66
-31 -126 -37 -132 -12 -15 -47 -17 -66 -4 -7 4 -26 66 -42 137 -64 279 -98
312 -394 378 -110 25 -126 34 -126 72 0 33 16 41 136 68 140 31 217 58 259 91
49 37 91 132 124 280 28 125 43 155 76 155 7 0 19 -8 28 -18z m2071 -664 c8
-13 26 -83 40 -156 65 -331 105 -371 451 -441 77 -16 143 -35 152 -44 19 -19
20 -64 2 -82 -8 -8 -72 -26 -144 -40 -259 -50 -338 -91 -394 -202 -22 -44 -61
-197 -82 -317 -12 -74 -34 -106 -72 -106 -41 0 -56 31 -81 161 -68 351 -111
394 -465 465 -130 26 -161 41 -161 81 0 42 30 58 141 78 352 61 415 117 475
425 14 69 27 135 29 147 12 53 82 73 109 31z m-3426 -706 c12 -12 27 -64 45
-153 34 -176 51 -227 90 -285 57 -86 131 -120 357 -166 80 -16 150 -34 156
-41 25 -26 26 -56 2 -80 -18 -18 -50 -28 -148 -47 -340 -62 -391 -112 -455
-441 -30 -153 -43 -179 -85 -179 -51 0 -56 9 -91 198 -36 196 -81 285 -173
341 -42 26 -177 65 -303 87 -110 19 -143 37 -143 78 0 39 31 55 162 81 265 53
331 87 391 206 29 57 44 108 67 229 18 91 37 161 47 172 21 23 58 23 81 0z
m2152 -713 c35 -16 309 -285 1255 -1235 836 -840 1218 -1230 1235 -1262 36
-67 35 -176 -2 -248 -69 -132 -224 -182 -360 -115 -37 18 -319 295 -1255 1237
-1323 1330 -1255 1256 -1255 1379 0 106 52 193 144 239 67 34 170 36 238 5z
m-955 -963 c28 -28 29 -31 51 -201 20 -161 54 -300 90 -366 71 -130 206 -190
584 -260 106 -19 129 -27 153 -50 16 -16 27 -38 27 -54 0 -16 -11 -38 -27 -54
-25 -24 -46 -30 -192 -55 -204 -34 -299 -58 -376 -95 -166 -77 -214 -178 -265
-561 -17 -132 -21 -147 -45 -167 -14 -13 -39 -23 -55 -23 -16 0 -40 10 -54 23
-23 19 -28 38 -46 160 -42 287 -81 408 -158 485 -75 75 -193 116 -507 178
-119 24 -144 32 -167 55 -34 34 -36 69 -5 105 21 24 39 29 222 59 484 80 541
138 610 625 23 159 28 177 51 198 33 29 78 29 109 -2z"/>
<path d="M5177 5292 c-56 -58 -63 -49 355 -471 211 -212 385 -387 388 -389 3
-1 32 25 65 58 l60 60 -355 356 c-195 196 -373 369 -394 385 -50 37 -84 37
-119 1z"/>
</g>
</svg>
