<?xml version="1.0" standalone="no"?>
<!DOCTYPE svg PUBLIC "-//W3C//DTD SVG 20010904//EN"
 "http://www.w3.org/TR/2001/REC-SVG-20010904/DTD/svg10.dtd">
<svg version="1.0" xmlns="http://www.w3.org/2000/svg"
 width="1024.000000pt" height="1024.000000pt" viewBox="0 0 1024.000000 1024.000000"
 preserveAspectRatio="xMidYMid meet">
<metadata>
Created by potrace 1.14, written by Peter Selinger 2001-2017
</metadata>
<g transform="translate(0.000000,1024.000000) scale(0.100000,-0.100000)"
fill="#000000" stroke="none">
<path d="M2800 9143 c-39 -15 -73 -50 -100 -102 -32 -65 -115 -309 -181 -535
-23 -82 -52 -162 -63 -179 -38 -56 -90 -86 -246 -145 -217 -83 -360 -149 -396
-183 -31 -30 -54 -86 -54 -130 0 -13 9 -43 19 -66 22 -48 59 -72 206 -133 55
-23 109 -46 120 -50 11 -5 43 -18 70 -28 173 -68 220 -90 247 -117 39 -40 51
-64 78 -160 70 -257 179 -569 219 -630 40 -59 87 -87 136 -81 53 8 84 32 117
92 24 44 116 308 213 615 55 175 62 182 295 269 103 39 112 42 172 69 26 12
50 21 53 21 6 0 84 33 130 56 62 30 102 119 84 190 -22 86 -63 111 -452 270
-98 39 -188 80 -199 91 -39 35 -67 100 -127 299 -71 235 -135 422 -161 473
-39 77 -117 118 -180 94z"/>
<path d="M6044 9052 c-115 -41 -221 -136 -292 -261 -106 -189 -337 -882 -632
-1896 -91 -313 -116 -367 -218 -472 -65 -66 -177 -150 -255 -189 -26 -13 -117
-49 -203 -80 -473 -168 -1036 -402 -1329 -552 -194 -99 -295 -261 -295 -472 0
-145 50 -271 145 -367 51 -51 84 -72 190 -123 232 -111 491 -219 1240 -513
149 -59 299 -124 335 -144 94 -55 236 -200 282 -288 25 -48 61 -157 113 -345
148 -537 322 -1071 509 -1569 113 -299 140 -357 208 -440 94 -117 215 -176
346 -170 136 7 265 90 353 229 87 137 246 579 515 1435 240 761 272 857 311
924 45 77 141 174 216 219 31 18 185 82 344 141 490 184 1147 453 1328 543
173 88 288 298 272 501 -13 168 -110 326 -250 406 -186 105 -876 401 -1510
646 -171 66 -239 108 -331 205 -115 122 -132 168 -415 1107 -180 596 -323
1019 -412 1218 -56 127 -152 231 -263 285 -60 30 -80 35 -160 37 -69 3 -103
-1 -142 -15z"/>
<path d="M2108 4880 c-36 -11 -75 -42 -108 -88 -47 -65 -142 -331 -266 -752
-42 -140 -83 -268 -92 -284 -19 -32 -77 -89 -128 -123 -18 -13 -90 -43 -161
-68 -70 -26 -137 -50 -148 -55 -11 -5 -60 -25 -110 -45 -203 -84 -319 -140
-356 -173 -100 -88 -99 -261 1 -345 44 -37 165 -92 470 -214 297 -118 310
-124 363 -165 56 -45 85 -103 132 -270 90 -322 240 -759 291 -845 30 -51 93
-100 140 -109 43 -8 99 2 118 21 8 8 19 15 25 15 20 0 70 81 102 164 17 44 32
86 33 91 2 6 10 28 20 50 9 21 18 46 19 55 2 8 6 20 9 26 4 6 9 22 12 36 2 15
10 37 17 50 7 12 11 23 10 23 -1 0 0 7 3 15 11 29 59 185 60 195 1 6 5 15 8
21 4 6 9 21 11 35 3 13 15 53 27 89 12 36 24 72 26 80 15 60 60 180 77 205 50
72 82 90 302 173 297 112 544 217 575 246 62 56 90 121 85 199 -4 53 -37 123
-74 155 -28 24 -182 102 -251 127 -5 2 -76 33 -150 67 -25 11 -49 21 -55 22
-5 1 -19 7 -30 13 -11 6 -22 11 -25 11 -3 0 -16 5 -30 10 -57 22 -143 55 -150
56 -3 1 -14 7 -25 13 -11 6 -24 12 -30 13 -80 18 -180 132 -198 227 -2 10 -7
25 -10 33 -8 20 -148 479 -152 500 -3 14 -83 241 -121 345 -19 51 -105 150
-134 154 -53 7 -109 7 -132 1z"/>
</g>
</svg>
